<?xml version="1.0" encoding="UTF-8" standalone="no"?>
<!-- Generator: Adobe Illustrator 10.0, SVG Export Plug-In . SVG Version: 3.0.0 Build 76)  -->

<svg
   xmlns:ns5="http://ns.adobe.com/SaveForWeb/1.0/"
   xmlns:ns4="http://ns.adobe.com/Variables/1.0/"
   xmlns:ns3="http://ns.adobe.com/AdobeIllustrator/10.0/"
   xmlns:dc="http://purl.org/dc/elements/1.1/"
   xmlns:cc="http://creativecommons.org/ns#"
   xmlns:rdf="http://www.w3.org/1999/02/22-rdf-syntax-ns#"
   xmlns:svg="http://www.w3.org/2000/svg"
   xmlns="http://www.w3.org/2000/svg"
   xmlns:xlink="http://www.w3.org/1999/xlink"
   xmlns:sodipodi="http://sodipodi.sourceforge.net/DTD/sodipodi-0.dtd"
   xmlns:inkscape="http://www.inkscape.org/namespaces/inkscape"
   ns3:viewOrigin="253.667 498.5132"
   ns3:rulerOrigin="0 0"
   ns3:pageBounds="0 595.4453 841.8896 0"
   width="450"
   height="415"
   viewBox="0 0 449.99999 415.00001"
   overflow="visible"
   enable-background="new 0 0 308.669 326.878"
   xml:space="preserve"
   id="svg2"
   version="1.1"
   inkscape:version="0.91 r13725"
   sodipodi:docname="Logo_Racing_MeÌtro_92_2005.svg"
   style="overflow:visible"><defs
     id="defs117"><defs
       id="defs39"><path
         id="XMLID_5_"
         d="m 0,326.878 308.669,0 L 308.669,0 0,0 0,326.878 Z"
         inkscape:connector-curvature="0" /></defs><clipPath
       id="XMLID_6_"><use
         xlink:href="#XMLID_5_"
         id="use43"
         x="0"
         y="0"
         width="100%"
         height="100%" /></clipPath></defs><sodipodi:namedview
     pagecolor="#ffffff"
     bordercolor="#666666"
     borderopacity="1"
     objecttolerance="10"
     gridtolerance="10"
     guidetolerance="10"
     inkscape:pageopacity="0"
     inkscape:pageshadow="2"
     inkscape:window-width="1280"
     inkscape:window-height="691"
     id="namedview115"
     showgrid="false"
     inkscape:zoom="0.97020117"
     inkscape:cx="15.248079"
     inkscape:cy="105.33201"
     inkscape:window-x="0"
     inkscape:window-y="1"
     inkscape:window-maximized="1"
     inkscape:current-layer="svg2" /><metadata
     id="metadata4"><ns4:variableSets><ns4:variableSet
         varSetName="binding1"
         locked="none"><ns4:variables /><ns4:sampleDataSets /></ns4:variableSet></ns4:variableSets><ns5:sfw><ns5:slices /><ns5:sliceSourceBounds
         y="171.635"
         x="253.667"
         width="308.669"
         height="326.878"
         bottomLeftOrigin="true" /></ns5:sfw><rdf:RDF><cc:Work
         rdf:about=""><dc:format>image/svg+xml</dc:format><dc:type
           rdf:resource="http://purl.org/dc/dcmitype/StillImage" /><dc:title></dc:title></cc:Work></rdf:RDF></metadata><g
     id="g11"
     style="fill:#c2e0f7;fill-opacity:1"
     transform="matrix(1.0628294,0,0,1.0628294,394.95835,47.60535)"><defs
       id="defs13"><path
         inkscape:connector-curvature="0"
         d="m 0,326.878 308.669,0 L 308.669,0 0,0 0,326.878 Z"
         id="XMLID_1_" /></defs><clipPath
       id="XMLID_2_"><use
         height="100%"
         width="100%"
         y="0"
         x="0"
         id="use17"
         xlink:href="#XMLID_1_" /></clipPath></g><ns3:pgf
     id="adobe_illustrator_pgf" /><style
     id="style4846"
     type="text/css">
	.st0{fill:#231F20;}
	.st1{fill:#B2D9F4;}
	.st2{clip-path:url(#SVGID_2_);}
	.st3{fill:#FFFFFF;}
	.st4{fill:none;stroke:#FFFFFF;stroke-width:1.73;}
</style><g
     id="g5306"
     transform="matrix(3.1982942,0,0,3.1982942,-15.351813,-5.8955227)"><g
       id="g5333"><path
         style="fill:#b2d9f4"
         inkscape:connector-curvature="0"
         class="st1"
         d="M 75.3,109.1 C 95.7,101.7 108.7,88.8 115.8,73.6 125.9,51.7 124,13.7 124,13.7 93.7,13.6 75.3,2 75.3,2 c 0,0 -18.4,11.6 -48.7,11.6 0,0 -1.9,38 8.2,59.9 7.1,15.3 20.1,28.2 40.5,35.6"
         id="path4868" /><g
         id="g5319"><g
           id="g4870"><defs
             id="defs4872"><path
               d="m 29,16 c 0,0 -1.8,36.2 7.8,56.9 6.7,14.5 19.1,26.8 38.5,33.8 19.4,-7 31.8,-19.3 38.5,-33.8 C 123.4,52.1 121.6,16 121.6,16 92.8,16 75.3,4.9 75.3,4.9 75.3,4.9 57.8,16 29,16"
               id="SVGID_1_"
               inkscape:connector-curvature="0" /></defs><clipPath
             id="SVGID_2_"><use
               id="use4876"
               style="overflow:visible"
               xlink:href="#SVGID_1_"
               x="0"
               y="0"
               width="100%"
               height="100%" /></clipPath><g
             clip-path="url(#SVGID_2_)"
             id="g4878"
             class="st2"><rect
               id="rect4880"
               height="11.4"
               width="96.099998"
               class="st3"
               y="19"
               x="27.200001"
               style="fill:#ffffff" /><rect
               id="rect4882"
               height="11.4"
               width="96.099998"
               class="st3"
               y="41.599998"
               x="27.200001"
               style="fill:#ffffff" /><polygon
               id="polygon4884"
               points="123.4,64.1 33.7,64.1 35.6,69.5 38.2,75.5 123.4,75.5 "
               class="st3"
               style="fill:#ffffff" /><polygon
               id="polygon4886"
               points="46.1,86.7 51.8,92.7 58.6,98.1 92,98.1 98.9,92.8 104.9,86.7 "
               class="st3"
               style="fill:#ffffff" /></g></g><path
           style="fill:none;stroke:#ffffff;stroke-width:1.73000002"
           inkscape:connector-curvature="0"
           class="st4"
           d="m 75.4,106.4 -0.1,0 C 57.4,99.9 44.2,88.3 37,72.7 27.6,52.3 29.2,16.5 29.2,16.1 l 0,-0.3 0.3,0 C 57.6,15.8 75,5 75.2,4.9 l 0.2,-0.1 0.2,0.1 c 0.2,0.1 17.6,10.9 45.7,10.9 l 0.3,0 0,0.3 c 0,0.4 1.7,36.2 -7.8,56.6 -7.2,15.6 -20.4,27.2 -38.3,33.7 l -0.1,0 z M 29.8,16.5 c -0.1,3.6 -1.2,36.7 7.7,56 7.1,15.4 20.2,26.9 37.8,33.3 C 93,99.4 106,87.9 113.1,72.5 122,53.2 121,20.1 120.8,16.5 94.3,16.4 77.3,6.7 75.4,5.6 73.5,6.7 56.4,16.4 29.8,16.5 Z"
           id="path4892" /></g></g></g><g
     id="g5437"
     transform="matrix(1.0628294,0,0,1.0628294,60.839021,0.500003)"><g
       id="g5425"><path
         ns3:knockout="Off"
         clip-path="url(#XMLID_6_)"
         d="m 91.978,277.229 c -0.741,-0.328 -1.374,-0.592 -1.898,-0.8 -0.527,-0.208 -0.952,-0.313 -1.277,-0.313 -0.375,0 -0.68,0.085 -0.914,0.264 -0.234,0.173 -0.352,0.349 -0.352,0.516 0,0.278 0.223,0.501 0.665,0.683 0.439,0.185 0.958,0.275 1.556,0.275 0.375,0 0.703,-0.023 0.973,-0.079 0.494,-0.092 0.907,-0.274 1.247,-0.546 m 12.501,-7.772 c 0,2.326 -0.785,4.488 -2.347,6.498 -1.567,2.007 -3.261,3.009 -5.092,3.009 -0.858,0 -1.576,-0.132 -2.162,-0.401 -0.586,-0.269 -1.025,-0.398 -1.324,-0.398 -0.636,0.205 -1.23,0.393 -1.79,0.557 -0.56,0.161 -1.125,0.243 -1.693,0.243 -0.847,0 -1.579,-0.173 -2.203,-0.524 -0.738,-0.419 -1.107,-0.981 -1.107,-1.699 0,-0.466 0.202,-0.864 0.604,-1.189 0.322,-0.258 0.598,-0.387 0.814,-0.387 l 1.734,0 c 0.185,0 0.759,0.205 1.734,0.621 0.325,0.129 0.806,0.343 1.441,0.645 0.428,0 0.812,-0.806 1.157,-2.417 0.345,-1.611 0.688,-3.258 1.04,-4.948 0.519,-2.165 1.154,-3.773 1.91,-4.825 0.155,-0.223 0.387,-0.592 0.691,-1.11 0.304,-0.518 0.601,-0.779 0.885,-0.779 0.17,0 0.384,0.047 0.642,0.138 -0.363,0.609 -0.724,1.21 -1.087,1.808 -0.325,0.729 -0.486,1.4 -0.486,2.01 l 0,4.535 0,1.148 c -0.105,0.858 -0.419,1.74 -0.938,2.648 -0.39,0.686 -0.844,1.318 -1.362,1.887 -0.416,0.469 -0.656,0.703 -0.718,0.703 0.375,0.287 0.814,0.516 1.321,0.686 0.507,0.17 0.908,0.252 1.207,0.252 1.441,0 2.681,-0.668 3.718,-2.004 1.222,-1.573 1.831,-3.756 1.831,-6.548 0,-2.077 -0.498,-4.02 -1.5,-5.821 -1.178,-2.133 -2.684,-3.196 -4.515,-3.196 l -2.687,0 c -0.949,0 -1.998,0.478 -3.155,1.438 -1.286,1.078 -1.928,2.235 -1.928,3.469 0,0.896 0.352,1.644 1.049,2.241 0.598,0.507 1.201,0.759 1.813,0.759 0.091,0 0.343,-0.082 0.75,-0.243 0.407,-0.161 0.847,-0.287 1.313,-0.381 l 0,0.624 c -0.401,0.662 -0.935,1.189 -1.597,1.576 -0.571,0.328 -1.096,0.486 -1.576,0.486 -0.92,0 -1.784,-0.363 -2.59,-1.087 -0.806,-0.729 -1.207,-1.579 -1.207,-2.552 0,-0.899 0.311,-1.887 0.935,-2.962 0.727,-1.263 1.693,-2.282 2.9,-3.056 1.468,-0.949 3.141,-1.424 5.024,-1.424 2.285,0 4.266,0.686 5.938,2.063 1.74,1.43 2.61,3.17 2.61,5.221 l 0,2.686 z"
         id="path47"
         inkscape:connector-curvature="0"
         style="fill:#000000;stroke:none"
         transform="matrix(0.86928562,0,0,0.86928562,20.290073,36.248902)" /><path
         ns3:knockout="Off"
         clip-path="url(#XMLID_6_)"
         d="m 110.786,271.982 c 0,-0.401 -0.067,-0.674 -0.196,-0.814 -0.129,-0.146 -0.349,-0.217 -0.662,-0.217 -0.621,0 -1.116,0.316 -1.479,0.955 -0.363,0.636 -0.718,1.286 -1.069,1.945 l 0,1.541 c 0.753,-0.287 1.315,-0.554 1.693,-0.8 1.142,-0.741 1.713,-1.608 1.713,-2.61 m 3.407,4.254 c -0.598,0.606 -1.09,1.061 -1.479,1.359 -1.169,0.908 -2.206,1.362 -3.117,1.362 l -1.711,0 c -0.677,0 -1.377,-0.325 -2.104,-0.97 -0.87,-0.779 -1.304,-1.705 -1.304,-2.78 0,-0.466 0.205,-1.081 0.621,-1.849 0.521,-0.943 1.169,-1.711 1.948,-2.294 1.011,-0.75 2.142,-1.125 3.387,-1.125 0.961,0 1.641,0.19 2.048,0.583 0.334,0.322 0.504,0.809 0.504,1.459 0,0.97 -0.498,1.813 -1.497,2.525 -0.524,0.375 -1.45,0.841 -2.789,1.395 -0.999,0.419 -1.497,0.756 -1.497,1.017 0,0.258 0.182,0.519 0.545,0.785 0.366,0.264 0.806,0.398 1.324,0.398 0.999,0 1.825,-0.214 2.473,-0.642 0.882,-0.691 1.767,-1.383 2.648,-2.086 l 0,0.863 z"
         id="path49"
         inkscape:connector-curvature="0"
         style="fill:#000000;stroke:none"
         transform="matrix(0.86928562,0,0,0.86928562,20.290073,36.248902)" /><path
         ns3:knockout="Off"
         clip-path="url(#XMLID_6_)"
         d="m 125.719,275.826 c -0.492,0.841 -1.119,1.556 -1.89,2.139 -0.87,0.665 -1.746,0.996 -2.628,0.996 l -1.556,0 c -0.715,0 -1.371,-0.308 -1.969,-0.917 -0.542,-0.557 -0.814,-1.116 -0.814,-1.673 0,-0.261 0.07,-0.507 0.211,-0.741 0.196,-0.325 0.475,-0.486 0.838,-0.486 0.223,0 0.422,0.085 0.606,0.252 0.179,0.167 0.27,0.378 0.27,0.624 0,0.117 -0.079,0.252 -0.234,0.407 -0.363,0.378 -0.574,0.753 -0.642,1.134 l 1.383,0 c 0.741,-0.715 1.184,-1.175 1.327,-1.383 0.387,-0.53 0.58,-1.107 0.58,-1.729 l 0,-1.553 c 0,-0.463 -0.146,-0.87 -0.437,-1.213 -0.29,-0.34 -0.665,-0.513 -1.119,-0.513 -0.56,0 -1.148,0.375 -1.772,1.128 -0.738,0.896 -1.33,2.124 -1.77,3.694 -0.536,1.893 -0.803,4.148 -0.803,6.768 0,0.454 -0.006,0.888 -0.018,1.304 -0.012,0.416 -0.026,0.803 -0.038,1.166 0,0.533 0.021,0.984 0.056,1.359 l -1.907,0 0,-7.623 c 0.082,-0.454 0.158,-0.914 0.234,-1.383 0.223,-1.154 0.437,-2.314 0.645,-3.48 0.284,-1.57 0.571,-3.067 0.855,-4.494 0.129,-0.817 0.267,-1.641 0.407,-2.473 0.287,-1.201 0.729,-1.945 1.327,-2.218 l 0.876,0 0,0.858 c 0,0.469 -0.091,1.084 -0.275,1.852 -0.401,1.699 -0.601,2.651 -0.601,2.862 l 0,1.731 c 0.724,-0.7 1.271,-1.201 1.635,-1.5 0.636,-0.516 1.368,-0.779 2.197,-0.779 1.066,0 1.846,0.337 2.338,1.014 0.39,0.527 0.586,1.236 0.586,2.115 0,1.087 -0.369,2.115 -1.11,3.088 -0.87,0.891 -1.418,1.477 -1.635,1.746 l 1.011,0 c 0.729,-0.088 1.482,-0.504 2.259,-1.245 0.519,-0.507 1.046,-1.011 1.576,-1.518 l 0,0.684 z"
         id="path51"
         inkscape:connector-curvature="0"
         style="fill:#000000;stroke:none"
         transform="matrix(0.86928562,0,0,0.86928562,20.290073,36.248902)" /><path
         ns3:knockout="Off"
         clip-path="url(#XMLID_6_)"
         d="m 137.227,276.136 c 0,0.492 -0.387,1.119 -1.157,1.875 -0.773,0.756 -1.45,1.137 -2.033,1.137 -0.949,0 -1.532,-0.416 -1.755,-1.242 -0.311,-1.154 -0.554,-1.805 -0.721,-1.945 -0.598,0.999 -1.128,1.708 -1.597,2.121 -0.65,0.586 -1.421,0.876 -2.314,0.876 -0.729,0 -1.248,-0.325 -1.562,-0.97 -0.246,-0.51 -0.369,-1.184 -0.369,-2.027 0.053,-0.495 0.105,-0.996 0.158,-1.503 0.182,-1.154 0.434,-2.095 0.759,-2.821 0.454,-1.014 1.031,-1.523 1.731,-1.523 0.132,0 0.246,0.044 0.352,0.129 0.103,0.085 0.281,0.275 0.527,0.574 -0.363,0.363 -0.653,1.195 -0.858,2.493 -0.287,1.755 -0.466,2.754 -0.545,3 l 0,1.772 0.876,0 c 1.286,-1.011 2.25,-2.227 2.9,-3.639 0.352,-0.976 0.706,-1.957 1.072,-2.941 0.325,-0.806 0.832,-1.207 1.518,-1.207 0.117,0 0.223,0.003 0.322,0.009 0.1,0.009 0.19,0.012 0.281,0.012 0.105,0 0.202,-0.009 0.293,-0.021 l 0,1.421 c -0.337,0.375 -0.565,1.017 -0.683,1.925 -0.152,1.219 -0.284,1.992 -0.387,2.317 l 0,1.942 c 0.557,0 1.022,-0.146 1.4,-0.445 0.442,-0.346 0.914,-1.022 1.421,-2.019 0.248,0.179 0.371,0.413 0.371,0.7"
         id="path53"
         inkscape:connector-curvature="0"
         style="fill:#000000;stroke:none"
         transform="matrix(0.86928562,0,0,0.86928562,20.290073,36.248902)" /><path
         ns3:knockout="Off"
         clip-path="url(#XMLID_6_)"
         d="m 141.354,265.578 c 0,0.428 -0.205,0.785 -0.624,1.072 -0.308,0.217 -0.563,0.328 -0.759,0.328 -0.352,0 -0.668,-0.129 -0.952,-0.387 -0.287,-0.261 -0.431,-0.539 -0.431,-0.841 0,-0.325 0.144,-0.647 0.431,-0.97 0.337,-0.381 0.712,-0.565 1.131,-0.565 0.504,0 0.847,0.161 1.031,0.486 0.115,0.209 0.173,0.502 0.173,0.877 m 1.559,10.072 c 0,0.56 -0.363,1.222 -1.09,1.986 -0.847,0.885 -1.746,1.327 -2.707,1.327 -0.7,0 -1.28,-0.337 -1.734,-1.014 -0.349,-0.519 -0.524,-0.993 -0.524,-1.421 l 0,-1.383 c 0.208,-1.172 0.396,-2.042 0.565,-2.613 0.519,-1.746 1.134,-2.613 1.849,-2.613 0.363,0 0.604,0.059 0.721,0.176 0.114,0.117 0.176,0.305 0.176,0.563 -0.012,0.211 -0.018,0.375 -0.018,0.492 0,0.246 -0.176,1.201 -0.521,2.871 -0.34,1.67 -0.513,2.733 -0.513,3.19 0,0.466 0.226,0.7 0.683,0.7 0.272,0 0.636,-0.246 1.087,-0.738 0.624,-0.68 1.245,-1.354 1.869,-2.033 0.067,0.056 0.105,0.094 0.117,0.117 0.028,0.041 0.04,0.17 0.04,0.393"
         id="path55"
         inkscape:connector-curvature="0"
         style="fill:#000000;stroke:none"
         transform="matrix(0.86928562,0,0,0.86928562,20.290073,36.248902)" /><path
         ns3:knockout="Off"
         clip-path="url(#XMLID_6_)"
         d="m 146.514,275.946 0,-1.342 c 0,-0.208 -0.108,-0.554 -0.328,-1.046 -0.144,-0.299 -0.287,-0.604 -0.431,-0.914 -0.36,0.182 -0.65,0.46 -0.864,0.835 -0.214,0.375 -0.428,0.75 -0.636,1.125 0.196,0.117 0.346,0.258 0.448,0.419 0.105,0.164 0.155,0.375 0.155,0.633 0,0.334 -0.1,0.647 -0.299,0.932 -0.202,0.287 -0.305,0.472 -0.305,0.563 0,0.117 0.079,0.246 0.234,0.387 0.155,0.144 0.278,0.217 0.369,0.217 0.223,0 0.524,-0.158 0.917,-0.469 0.494,-0.4 0.74,-0.848 0.74,-1.34 m 4.362,0.46 c -0.337,0.574 -0.841,1.113 -1.518,1.617 -0.817,0.627 -1.564,0.935 -2.241,0.935 l -1.652,0 c -0.574,0 -1.119,-0.22 -1.638,-0.659 -0.715,-0.598 -1.072,-1.43 -1.072,-2.508 0,-0.287 0.507,-1.333 1.523,-3.141 1.011,-1.808 1.605,-2.71 1.79,-2.71 0.311,0 0.498,0.062 0.563,0.196 0.029,0.05 0.041,0.185 0.041,0.407 l 0,1.046 c 0,0.428 0.352,1.025 1.049,1.787 0.703,0.768 1.055,1.523 1.055,2.273 -0.067,0.287 -0.117,0.516 -0.158,0.683 -0.129,0.519 -0.229,0.888 -0.29,1.107 0.7,-0.091 1.16,-0.325 1.38,-0.7 0.272,-0.457 0.662,-0.773 1.169,-0.955 l 0,0.622 z"
         id="path57"
         inkscape:connector-curvature="0"
         style="fill:#000000;stroke:none"
         transform="matrix(0.86928562,0,0,0.86928562,20.290073,36.248902)" /><path
         ns3:knockout="Off"
         clip-path="url(#XMLID_6_)"
         d="m 171.419,260.697 c -1.104,2.777 -1.852,5.9 -2.238,9.366 -0.469,4.195 -0.721,6.354 -0.762,6.486 -0.413,1.608 -1.336,2.417 -2.763,2.417 -0.964,0 -1.444,-0.48 -1.444,-1.444 0,-1.052 0.296,-2.402 0.876,-4.052 0.548,-1.415 1.107,-2.877 1.688,-4.383 0.574,-1.506 0.867,-2.654 0.867,-3.445 0,-0.223 -0.021,-0.428 -0.062,-0.624 l -6.501,6.483 -0.466,0 0,-0.955 9.85,-11.063 0.955,0 0,1.214 z"
         id="path59"
         inkscape:connector-curvature="0"
         style="fill:#000000;stroke:none"
         transform="matrix(0.86928562,0,0,0.86928562,20.290073,36.248902)" /><path
         ns3:knockout="Off"
         clip-path="url(#XMLID_6_)"
         d="m 185.165,263.864 c 0,-0.911 -0.442,-1.661 -1.324,-2.259 -0.662,-0.439 -1.192,-0.662 -1.597,-0.662 -1.143,0 -2.118,0.296 -2.93,0.885 -0.812,0.592 -1.219,1.271 -1.219,2.036 0,0.741 0.592,1.479 1.77,2.221 1.002,0.618 1.708,0.932 2.127,0.932 1.014,0 1.828,-0.425 2.452,-1.283 0.481,-0.666 0.721,-1.287 0.721,-1.87 m -0.741,10.714 c 0,-0.829 -0.48,-1.6 -1.441,-2.314 -0.7,-0.521 -1.594,-0.979 -2.684,-1.386 -0.82,-0.296 -1.307,-0.448 -1.462,-0.448 -0.7,0 -1.421,0.516 -2.162,1.541 -0.674,0.938 -1.011,1.723 -1.011,2.355 0,0.768 0.322,1.5 0.973,2.203 0.595,0.65 1.169,0.976 1.711,0.976 l 3.158,0 c 0.413,0 0.952,-0.234 1.617,-0.7 0.867,-0.628 1.301,-1.366 1.301,-2.227 m 3.662,-10.477 c 0,0.598 -0.261,1.195 -0.779,1.79 -0.129,0.144 -1.09,0.929 -2.883,2.358 1.014,0.82 1.723,1.424 2.124,1.811 0.703,0.688 1.049,1.708 1.049,3.059 0,1.805 -0.688,3.231 -2.071,4.277 -1.383,1.043 -3.29,1.567 -5.716,1.567 -2.555,0 -4.465,-0.504 -5.725,-1.521 -1.049,-0.841 -1.576,-1.96 -1.576,-3.349 0,-0.703 0.39,-1.462 1.169,-2.282 0.598,-0.621 1.324,-1.225 2.18,-1.811 0.416,-0.258 0.838,-0.519 1.266,-0.776 -0.545,-0.612 -1.09,-1.23 -1.638,-1.854 -0.36,-0.636 -0.542,-1.4 -0.542,-2.297 0,-1.143 0.589,-2.306 1.77,-3.486 1.406,-1.406 3.085,-2.104 5.045,-2.104 1.544,0 2.947,0.401 4.204,1.207 1.417,0.909 2.123,2.046 2.123,3.411"
         id="path61"
         inkscape:connector-curvature="0"
         style="fill:#000000;stroke:none"
         transform="matrix(0.86928562,0,0,0.86928562,20.290073,36.248902)" /><path
         ns3:knockout="Off"
         clip-path="url(#XMLID_6_)"
         d="m 202.298,263.864 c 0,-0.911 -0.439,-1.661 -1.321,-2.259 -0.662,-0.439 -1.195,-0.662 -1.6,-0.662 -1.14,0 -2.118,0.296 -2.927,0.885 -0.814,0.592 -1.219,1.271 -1.219,2.036 0,0.741 0.592,1.479 1.77,2.221 1.002,0.618 1.708,0.932 2.124,0.932 1.014,0 1.831,-0.425 2.455,-1.283 0.478,-0.666 0.718,-1.287 0.718,-1.87 m -0.741,10.714 c 0,-0.829 -0.478,-1.6 -1.438,-2.314 -0.703,-0.521 -1.597,-0.979 -2.687,-1.386 -0.817,-0.296 -1.304,-0.448 -1.459,-0.448 -0.703,0 -1.424,0.516 -2.165,1.541 -0.674,0.938 -1.011,1.723 -1.011,2.355 0,0.768 0.325,1.5 0.973,2.203 0.598,0.65 1.172,0.976 1.714,0.976 l 3.155,0 c 0.413,0 0.955,-0.234 1.617,-0.7 0.867,-0.628 1.301,-1.366 1.301,-2.227 m 3.665,-10.477 c 0,0.598 -0.261,1.195 -0.782,1.79 -0.129,0.144 -1.087,0.929 -2.883,2.358 1.017,0.82 1.723,1.424 2.124,1.811 0.703,0.688 1.052,1.708 1.052,3.059 0,1.805 -0.691,3.231 -2.074,4.277 -1.383,1.043 -3.287,1.567 -5.713,1.567 -2.558,0 -4.468,-0.504 -5.725,-1.521 -1.055,-0.841 -1.579,-1.96 -1.579,-3.349 0,-0.703 0.39,-1.462 1.169,-2.282 0.598,-0.621 1.324,-1.225 2.183,-1.811 0.413,-0.258 0.838,-0.519 1.263,-0.776 -0.542,-0.612 -1.09,-1.23 -1.635,-1.854 -0.363,-0.636 -0.542,-1.4 -0.542,-2.297 0,-1.143 0.586,-2.306 1.77,-3.486 1.403,-1.406 3.082,-2.104 5.042,-2.104 1.544,0 2.95,0.401 4.207,1.207 1.414,0.909 2.123,2.046 2.123,3.411"
         id="path63"
         inkscape:connector-curvature="0"
         style="fill:#000000;stroke:none"
         transform="matrix(0.86928562,0,0,0.86928562,20.290073,36.248902)" /><path
         ns3:knockout="Off"
         clip-path="url(#XMLID_6_)"
         d="m 221.634,264.59 c 0,1.69 -0.765,3.196 -2.3,4.518 -0.659,0.574 -2.153,1.532 -4.474,2.886 -1.729,0.996 -2.716,1.86 -2.962,2.59 l 5.842,1.945 c 0.272,0 0.935,-0.422 1.986,-1.266 0.583,-0.466 1.058,-0.779 1.421,-0.935 l 0,0.976 c -1.093,1.529 -2.036,2.522 -2.845,2.977 -0.803,0.454 -1.726,0.683 -2.763,0.683 -0.923,0 -1.969,-0.325 -3.135,-0.976 -1.169,-0.65 -2.071,-0.979 -2.71,-0.979 -0.19,0 -0.691,0.302 -1.497,0.896 -0.478,0.352 -0.952,0.621 -1.421,0.8 l 0,-0.976 c 0.715,-1.181 2.147,-2.707 4.301,-4.582 2.61,-2.256 4.274,-3.794 4.986,-4.597 1.597,-1.808 2.394,-3.536 2.394,-5.183 0,-0.861 -0.384,-1.588 -1.148,-2.186 -0.636,-0.495 -1.228,-0.741 -1.77,-0.741 -0.847,0 -1.717,0.313 -2.61,0.935 -1.181,0.817 -1.772,1.881 -1.772,3.193 0,0.961 0.401,1.594 1.21,1.907 0.647,0.261 1.14,0.519 1.477,0.782 -0.349,0.308 -0.598,0.521 -0.75,0.633 -0.149,0.105 -0.275,0.164 -0.375,0.164 -0.029,0 -0.152,-0.012 -0.375,-0.041 -0.217,-0.026 -0.451,-0.038 -0.697,-0.038 -1.104,0 -1.904,-0.275 -2.405,-0.829 -0.501,-0.551 -0.75,-1.324 -0.75,-2.326 0,-1.491 0.803,-2.813 2.414,-3.949 1.324,-0.923 2.467,-1.386 3.425,-1.386 l 2.669,0 c 0.946,0 1.89,0.39 2.821,1.169 1.209,1.004 1.813,2.313 1.813,3.936"
         id="path65"
         inkscape:connector-curvature="0"
         style="fill:#000000;stroke:none"
         transform="matrix(0.86928562,0,0,0.86928562,20.290073,36.248902)" /></g><g
       transform="matrix(3.0092264,0,0,3.0092264,-71.686796,-6.0174528)"
       id="g5348"><path
         id="path4852"
         d="m 10.7,130.5 c 0.2,0.1 0.5,0.2 0.8,0.2 l 0,0.4 -6.7,0 0,-0.4 c 0.3,0 0.5,-0.1 0.8,-0.2 0.1,-0.1 0.1,-0.2 0.1,-0.4 l 0,-15.1 c 0,-0.1 0,-0.3 -0.1,-0.4 -0.2,-0.1 -0.5,-0.2 -0.8,-0.2 l 0,-0.4 11.8,0 c 2.4,0 4.1,0.4 5.2,1.3 1.1,0.9 1.6,2.2 1.6,4.1 0,1.5 -0.4,2.7 -1.3,3.5 -0.9,0.9 -2.1,1.5 -3.3,1.8 l 3.8,5.4 c 0.2,0.3 0.5,0.6 0.9,0.6 l 0,0.4 -6.7,0 0,-0.4 c 0.5,0 0.7,-0.2 0.7,-0.6 -0.1,-0.2 -0.2,-0.3 -0.3,-0.5 -0.2,-0.3 -0.4,-0.6 -0.6,-0.9 -0.3,-0.4 -0.5,-0.8 -0.9,-1.2 -0.4,-0.4 -0.6,-0.8 -0.9,-1.2 -0.3,-0.4 -0.5,-0.7 -0.8,-1 -0.3,-0.3 -0.4,-0.5 -0.4,-0.6 l -3.2,0 0,5.4 c 0.2,0.1 0.2,0.3 0.3,0.4 m 5.3,-9.3 c 1,0 1.6,-0.2 2,-0.5 0.7,-0.7 0.7,-1.7 0.1,-2.4 0,0 0,0 -0.1,-0.1 -0.4,-0.4 -1,-0.5 -2,-0.5 l -5.4,0 0,3.6 5.4,-0.1 z"
         class="st0"
         inkscape:connector-curvature="0"
         style="fill:#231f20" /><path
         id="path4854"
         d="m 37.7,130.7 c 0.1,0 0.2,0 0.3,0 0.1,0 0.2,-0.1 0.2,-0.3 0,-0.1 -0.1,-0.3 -0.1,-0.4 -0.1,-0.2 -0.2,-0.4 -0.3,-0.6 -0.1,-0.2 -0.2,-0.4 -0.3,-0.6 -0.1,-0.2 -0.2,-0.4 -0.3,-0.6 l -7.5,0 c -0.1,0.2 -0.1,0.4 -0.2,0.6 -0.1,0.2 -0.2,0.4 -0.3,0.6 -0.1,0.2 -0.2,0.4 -0.3,0.6 -0.1,0.1 -0.1,0.3 -0.1,0.4 0,0.2 0.1,0.2 0.2,0.3 0.1,0 0.2,0 0.3,0 l 0,0.4 -4.8,0 0,-0.4 c 0.1,0 0.3,0 0.4,-0.1 0.1,0 0.2,-0.1 0.3,-0.2 0.6,-1.5 1.3,-3 2,-4.5 0.7,-1.5 1.3,-2.8 1.8,-4 l 1.3,-3 c 0.2,-0.4 0.4,-0.9 0.5,-1.3 0,-0.2 -0.1,-0.3 -0.4,-0.3 l 0,-0.4 6.8,0 0,0.4 c -0.3,0 -0.4,0.1 -0.4,0.3 0.1,0.3 0.2,0.6 0.3,0.9 0.2,0.5 0.5,1.1 0.9,1.9 0.4,0.8 0.8,1.6 1.2,2.5 l 1.3,2.8 c 0.4,0.9 0.9,1.8 1.2,2.6 0.4,0.8 0.7,1.5 0.9,2.1 0,0.1 0.1,0.2 0.3,0.2 0.1,0.1 0.3,0.1 0.4,0.1 l 0,0.4 -5.4,0 0,-0.4 z m -4.4,-10.5 -2.7,5.7 5.4,0 -2.7,-5.7 z"
         class="st0"
         inkscape:connector-curvature="0"
         style="fill:#231f20" /><path
         id="path4856"
         d="M 56.4,122.3 56,122.1 c 0,-0.1 0,-0.2 0.1,-0.3 0,-0.1 0,-0.2 0,-0.3 0,-0.1 -0.1,-0.3 -0.4,-0.5 -0.3,-0.2 -0.7,-0.4 -1,-0.5 -0.5,-0.2 -0.9,-0.3 -1.4,-0.4 -0.5,-0.1 -1.1,-0.2 -1.6,-0.2 -0.6,0 -1.2,0.1 -1.8,0.2 -0.6,0.1 -1.2,0.4 -1.7,0.7 -0.5,0.3 -0.9,0.7 -1.2,1.2 -0.7,1.1 -0.7,2.4 0,3.5 0.3,0.5 0.7,0.9 1.2,1.2 0.5,0.3 1.1,0.6 1.7,0.7 0.6,0.1 1.2,0.2 1.8,0.2 0.6,0 1.2,-0.1 1.8,-0.2 0.5,-0.1 1,-0.3 1.5,-0.6 0.4,-0.2 0.7,-0.4 1,-0.7 0.2,-0.2 0.4,-0.4 0.4,-0.5 l 0,-0.3 c 0,-0.1 0,-0.2 0,-0.3 l 0.4,-0.2 3.1,4.4 -0.4,0.2 C 59.3,129.2 59.1,129 59,129 c -0.2,0.1 -0.5,0.2 -0.7,0.3 -0.4,0.2 -0.9,0.4 -1.5,0.6 -0.7,0.3 -1.5,0.5 -2.2,0.6 -0.9,0.2 -1.9,0.3 -2.8,0.3 -1.2,0 -2.3,-0.1 -3.5,-0.4 -1.1,-0.2 -2.1,-0.6 -3,-1.2 -0.9,-0.6 -1.6,-1.3 -2.1,-2.2 -0.6,-1 -0.8,-2.2 -0.8,-3.4 0,-1.2 0.2,-2.3 0.8,-3.4 0.5,-0.9 1.3,-1.7 2.1,-2.3 0.9,-0.6 2,-1 3,-1.3 1.1,-0.3 2.3,-0.4 3.5,-0.4 0.7,0 1.4,0.1 2.1,0.2 0.7,0.1 1.3,0.2 1.8,0.4 0.6,0.1 1,0.3 1.5,0.4 0.3,0.1 0.6,0.2 0.9,0.2 0.1,0 0.2,0 0.3,-0.1 0.1,-0.1 0.1,-0.1 0.2,-0.2 l 0.4,0.1 -2.6,5.1 z"
         class="st0"
         inkscape:connector-curvature="0"
         style="fill:#231f20" /><path
         id="path4858"
         d="m 66.7,117.2 c -0.3,0 -0.5,0.1 -0.8,0.1 -0.2,0.1 -0.3,0.3 -0.3,0.5 l 0,12.3 c 0,0.2 0.1,0.4 0.3,0.5 0.2,0.1 0.5,0.1 0.8,0.1 l 0,0.4 -6.4,0 0,-0.4 c 0.3,0 0.5,-0.1 0.8,-0.1 0.2,-0.1 0.3,-0.3 0.3,-0.5 l 0,-12.3 c 0,-0.2 -0.1,-0.4 -0.3,-0.5 -0.2,-0.1 -0.5,-0.1 -0.8,-0.1 l 0,-0.4 6.4,0 0,0.4 z"
         class="st0"
         inkscape:connector-curvature="0"
         style="fill:#231f20" /><path
         id="path4860"
         d="m 85.3,130.5 c 0.2,0.1 0.4,0.1 0.6,0.1 l 0,0.4 -6,0 0,-0.4 c 0.2,0 0.4,0 0.6,-0.1 0.2,0 0.3,-0.2 0.3,-0.4 0,-0.2 -0.2,-0.6 -0.7,-1.1 -0.5,-0.5 -1.1,-1.2 -1.8,-2 l -2.5,-2.6 c -0.9,-1 -1.8,-2 -2.7,-3.1 l -0.1,0.1 0,8.5 c 0,0.2 0.1,0.4 0.2,0.5 0.2,0.1 0.4,0.1 0.6,0.1 l 0,0.4 -5.5,0 0,-0.4 c 0.2,0 0.4,-0.1 0.6,-0.1 0.2,-0.1 0.3,-0.3 0.2,-0.5 l 0,-12.3 c 0,-0.2 -0.1,-0.4 -0.3,-0.5 C 68.6,117 68.4,117 68.2,117 l 0,-0.4 7.7,0 0,0.4 c -0.2,0 -0.3,0.1 -0.4,0.1 -0.2,0.1 -0.3,0.3 -0.2,0.5 0.2,0.2 0.3,0.5 0.5,0.7 0.4,0.4 0.8,0.9 1.4,1.5 0.6,0.6 1.2,1.3 1.9,2 0.7,0.7 1.4,1.5 2.1,2.2 l 0,-6.4 c 0,-0.2 -0.1,-0.4 -0.3,-0.5 C 80.7,117 80.5,117 80.3,117 l 0,-0.4 5.7,0 0,0.4 c -0.2,0 -0.4,0.1 -0.6,0.1 -0.2,0.1 -0.3,0.3 -0.3,0.5 l 0,12.3 c -0.1,0.4 0,0.6 0.2,0.6"
         class="st0"
         inkscape:connector-curvature="0"
         style="fill:#231f20" /><path
         id="path4862"
         d="m 102.9,127.7 c 0,0.2 0,0.4 0.2,0.6 0.1,0.2 0.3,0.3 0.5,0.3 l 0.3,0 0,0.4 c -0.5,0.3 -1.1,0.5 -1.8,0.8 -0.7,0.3 -1.4,0.5 -2.2,0.7 -0.8,0.2 -1.6,0.4 -2.4,0.5 -0.8,0.1 -1.6,0.2 -2.5,0.2 -1.2,0 -2.3,-0.1 -3.5,-0.4 -1,-0.2 -1.9,-0.7 -2.7,-1.3 -0.8,-0.6 -1.4,-1.4 -1.8,-2.3 -0.4,-1 -0.7,-2.2 -0.6,-3.3 0,-1.1 0.2,-2.3 0.7,-3.3 0.5,-0.9 1.1,-1.7 1.9,-2.2 0.8,-0.6 1.7,-1.1 2.7,-1.3 1,-0.3 2.1,-0.4 3.2,-0.4 0.8,0 1.5,0 2.2,0.1 0.6,0.1 1.2,0.2 1.8,0.3 0.5,0.1 0.9,0.2 1.3,0.3 0.2,0.1 0.4,0.1 0.7,0.1 0.1,0 0.2,0 0.3,-0.1 0.1,-0.1 0.1,-0.2 0.2,-0.2 l 0.4,0.1 -1.7,4.3 -0.4,-0.2 0,-0.2 c 0,-0.2 -0.2,-0.4 -0.4,-0.6 -0.3,-0.2 -0.7,-0.4 -1.1,-0.5 -0.9,-0.3 -1.8,-0.4 -2.7,-0.4 -0.6,0 -1.3,0.1 -1.9,0.2 -0.6,0.1 -1.1,0.4 -1.6,0.7 -0.4,0.4 -0.8,0.8 -1.1,1.3 -0.3,0.6 -0.4,1.3 -0.4,1.9 0,0.7 0.1,1.4 0.4,2 0.2,0.5 0.6,1 1.1,1.4 0.5,0.4 1,0.6 1.6,0.8 0.6,0.2 1.3,0.3 2,0.3 0.5,0 1.1,0 1.6,-0.1 0.5,-0.1 1,-0.2 1.6,-0.4 l 0,-2.1 -2.7,0 c -0.2,0 -0.4,0.1 -0.5,0.3 -0.1,0.2 -0.1,0.3 -0.1,0.5 l -0.4,0 0,-4 0.4,0 c 0,0.2 0,0.3 0.1,0.5 0.1,0.2 0.3,0.3 0.5,0.3 l 6.7,0 0.1,4.4 z"
         class="st0"
         inkscape:connector-curvature="0"
         style="fill:#231f20" /><path
         id="path4864"
         d="m 114,125.8 0.3,0.2 0,0.3 c 0,1.1 2,1.6 4.1,1.6 2.7,0 5.2,-1.4 5.5,-4.5 -2.2,1.1 -3.9,1.7 -6,1.7 -3.3,0 -6.3,-2.2 -6.3,-5.6 0,-4.1 4.2,-5.6 7.7,-5.6 5.4,0 8.9,2.7 8.9,8.3 0,5.6 -4.6,8.9 -9.8,8.9 -1.4,0 -2.8,-0.2 -4.1,-0.5 -1,-0.3 -1.6,-0.5 -1.8,-0.5 -0.3,0 -0.6,0.1 -0.7,0.4 l -0.4,-0.2 2.6,-4.5 z m 1.9,-6.4 c 0,1.9 2.3,2.4 3.5,2.4 1.2,0 3.5,-0.5 3.5,-2.4 0,-1.9 -2.3,-2.4 -3.5,-2.4 -1.2,0 -3.5,0.5 -3.5,2.4"
         class="st0"
         inkscape:connector-curvature="0"
         style="fill:#231f20" /><path
         id="path4866"
         d="m 144.3,127 c 0.5,0 0.7,-0.1 0.8,-0.7 l 0.4,0 0,5.3 -0.4,0 c -0.1,-0.6 -0.3,-0.7 -1,-0.7 l -14.1,0 c -0.4,0 -0.6,0.2 -0.6,0.7 l -0.4,0 c -0.3,-6 6.2,-8.3 10.4,-10.9 0.6,-0.4 0.9,-0.7 0.9,-1.5 0,-0.8 -0.7,-1.7 -2.3,-1.7 -3,0 -5.4,2.2 -5.4,3 0,0.2 0.1,0.3 0.1,0.5 l -0.4,0.3 -3.4,-4.8 0.4,-0.3 c 0.1,0.2 0.4,0.3 0.6,0.3 0.7,0 3.2,-2.8 8,-2.8 3.7,0 7,2.3 7,5.5 0,4.7 -6.5,5.4 -9.2,7.8 l 8.6,0 z"
         class="st0"
         inkscape:connector-curvature="0"
         style="fill:#231f20" /></g></g></svg>